<?xml version="1.0" standalone="no"?>
<!DOCTYPE svg PUBLIC "-//W3C//DTD SVG 20010904//EN"
 "http://www.w3.org/TR/2001/REC-SVG-20010904/DTD/svg10.dtd">
<svg version="1.0" xmlns="http://www.w3.org/2000/svg"
 width="1028.000000pt" height="1028.000000pt" viewBox="0 0 1028.000000 1028.000000"
 preserveAspectRatio="xMidYMid meet">

<g transform="translate(0.000000,1028.000000) scale(0.100000,-0.100000)"
fill="#000000" stroke="none">
<path d="M1168 5413 l-36 -4 -7 -94 c-4 -51 -6 -159 -4 -239 l4 -145 40 -41
39 -40 81 0 c47 0 86 5 92 11 9 9 19 9 40 1 16 -6 102 -11 201 -11 172 0 172
0 188 24 21 32 41 31 84 0 l34 -25 258 0 c247 0 258 1 270 20 16 25 46 25 78
0 20 -15 41 -20 100 -20 81 0 100 9 100 46 0 36 26 54 79 54 44 0 53 -4 102
-50 l54 -49 80 -2 c44 -2 98 -4 120 -6 74 -7 189 -2 202 9 7 6 13 23 13 39 0
55 63 65 125 18 57 -43 122 -59 244 -59 126 0 183 17 246 72 59 52 72 87 49
127 -18 30 -18 31 2 58 25 34 53 39 93 18 40 -20 57 -55 65 -135 6 -57 12 -70
44 -102 35 -37 37 -38 112 -38 41 0 80 4 86 8 6 4 15 42 19 85 5 63 12 86 38
124 18 26 44 55 58 66 26 19 27 19 70 0 39 -18 46 -26 62 -74 14 -40 35 -70
82 -116 83 -81 129 -96 293 -91 108 3 122 6 185 35 79 37 101 36 158 -8 l37
-29 245 0 c205 0 247 2 257 15 16 19 41 19 66 0 24 -18 174 -21 192 -3 7 7 12
25 12 40 0 26 2 28 45 28 32 0 57 -8 92 -30 66 -42 102 -50 226 -50 85 0 120
4 165 21 104 38 128 38 181 -7 37 -31 152 -45 192 -23 17 9 58 12 140 10 l116
-3 26 31 c32 39 64 51 133 51 60 0 107 -16 157 -54 33 -25 35 -25 227 -25 122
0 199 4 207 11 7 6 13 26 13 44 0 29 6 38 42 60 38 24 87 35 219 47 24 2 89
-43 89 -61 0 -9 19 -36 42 -59 l42 -43 77 0 c85 0 96 6 101 60 3 30 10 39 52
61 32 17 70 28 111 32 148 11 222 113 184 250 -14 50 -56 97 -121 133 -53 29
-54 29 -241 32 -103 2 -198 1 -211 -2 -12 -3 -28 -17 -34 -31 -16 -34 -57 -33
-125 3 -52 27 -53 27 -259 27 -113 0 -210 -3 -214 -8 -4 -4 -11 -54 -15 -111
-4 -57 -12 -113 -18 -124 -12 -22 -74 -47 -90 -37 -6 3 -46 56 -89 118 -44 61
-91 122 -104 135 -27 25 -83 38 -121 28 -23 -5 -108 -109 -195 -237 -37 -55
-77 -90 -121 -109 -28 -11 -37 -11 -67 3 -19 10 -56 17 -81 17 -39 0 -53 5
-79 31 -28 27 -31 35 -22 54 21 48 -102 186 -202 226 -24 10 -76 14 -165 14
-126 0 -132 -1 -199 -32 -37 -18 -76 -33 -85 -33 -10 0 -40 16 -67 36 -48 35
-51 35 -122 30 -41 -2 -76 -7 -79 -10 -3 -3 -9 -55 -13 -116 -7 -103 -10 -114
-37 -148 l-30 -37 -87 3 c-71 2 -92 6 -117 24 -46 35 -62 66 -67 140 -4 65 -7
70 -48 108 -46 42 -76 49 -166 34 -33 -6 -38 -11 -44 -40 -5 -29 -11 -33 -46
-39 -32 -6 -45 -3 -76 19 -78 53 -108 61 -247 61 -111 -1 -138 -4 -185 -23
-70 -28 -88 -28 -130 3 -31 23 -43 25 -130 25 l-96 0 -54 -40 c-42 -32 -62
-40 -95 -40 -33 0 -53 8 -95 40 l-54 40 -98 0 c-85 0 -101 -3 -118 -20 -20
-20 -22 -20 -68 -4 -71 25 -233 30 -311 10 -110 -28 -160 -81 -182 -194 -6
-35 -21 -77 -33 -95 l-21 -31 -90 3 c-112 3 -129 16 -139 99 -8 66 -17 86 -69
141 -73 79 -95 85 -324 89 -194 4 -202 3 -220 -17 -22 -26 -49 -27 -88 -1 -28
18 -47 20 -273 20 -243 0 -282 -5 -282 -35 0 -24 -49 -18 -86 10 -26 20 -44
25 -89 25 -61 0 -81 -14 -126 -86 -20 -33 -62 -54 -107 -54 -17 0 -45 21 -94
70 -74 74 -71 73 -170 63z m6389 -60 c29 -33 312 -432 321 -455 2 -4 -32 -8
-77 -8 l-80 0 -38 45 -37 45 -113 0 -113 0 -32 -45 -32 -45 -81 0 c-77 0 -83
2 -109 29 l-28 29 157 221 c154 216 158 221 192 221 28 0 42 -8 70 -37z m773
15 c49 -22 106 -80 120 -124 15 -43 8 -105 -14 -139 -31 -47 -71 -59 -208 -63
l-128 -4 0 -74 0 -74 -67 0 c-59 0 -70 3 -95 27 l-28 27 0 216 c0 119 3 220 8
224 4 4 90 6 192 4 139 -3 194 -8 220 -20z m562 13 c53 -9 113 -46 147 -92 31
-42 38 -123 14 -169 -32 -60 -70 -75 -215 -79 l-128 -3 0 -74 0 -74 -67 0
c-59 0 -70 3 -95 27 l-28 27 0 216 c0 119 3 220 7 223 9 9 307 8 365 -2z
m-2746 -32 l29 -30 3 -215 4 -214 -68 0 c-60 0 -71 3 -96 27 -27 26 -28 30
-27 122 0 53 4 114 8 136 7 30 9 8 10 -87 l1 -128 50 0 50 0 0 204 0 205 -27
4 c-28 4 -28 4 3 6 22 1 38 -7 60 -30z m549 7 c47 -22 113 -82 148 -135 16
-24 16 -25 -40 -58 l-56 -34 -21 20 c-54 51 -178 68 -246 33 -27 -13 -37 -26
-44 -54 -5 -21 -6 -41 -2 -45 4 -4 42 -8 84 -7 78 0 108 9 149 46 l22 20 53
-30 c29 -17 68 -46 85 -64 l33 -34 -31 -37 c-52 -63 -98 -81 -225 -85 -136 -5
-200 11 -262 63 -67 58 -94 112 -95 192 -1 85 14 131 57 172 50 48 95 60 226
60 101 1 121 -2 165 -23z m-623 -166 c1 -77 2 -152 2 -167 1 -19 -5 -29 -16
-31 -17 -3 -18 10 -18 167 0 145 2 171 15 171 13 0 15 -23 17 -140z m-498 33
c3 -42 6 -93 6 -115 l0 -38 137 0 c135 0 137 0 165 -27 25 -24 28 -34 28 -90
l0 -63 -228 0 -228 0 -27 28 c-25 26 -27 33 -25 113 l2 84 3 -77 4 -78 214 0
215 0 0 50 0 50 -165 0 -165 0 0 33 c0 17 3 69 7 114 6 81 8 85 44 92 3 0 9
-33 13 -76z m-104 -73 l0 -120 168 -2 c141 -3 167 -5 167 -18 0 -13 -27 -15
-174 -18 -96 -1 -178 1 -182 5 -10 11 2 273 12 273 5 0 9 -54 9 -120z m-166
64 c3 -9 6 -17 6 -19 0 -2 -22 -17 -49 -33 l-49 -30 -27 28 c-21 22 -25 31
-14 34 24 9 114 35 120 35 4 1 10 -6 13 -15z m-11 -162 c15 -14 27 -31 27 -38
0 -23 -81 -93 -127 -108 -54 -18 -203 -21 -273 -5 -54 12 -110 49 -145 95
l-26 34 37 -25 c56 -38 107 -47 229 -43 88 3 118 8 152 26 37 19 83 64 83 82
0 3 -18 16 -40 29 -22 12 -40 25 -40 28 0 9 94 -48 123 -75z m-403 49 c0 -11
6 -22 13 -24 6 -3 7 -6 1 -6 -18 -2 -47 26 -40 37 11 18 26 14 26 -7z m227 -6
c-15 -14 -36 -25 -45 -25 -9 1 -3 7 14 14 18 8 35 19 38 25 4 6 10 11 14 11 4
0 -6 -12 -21 -25z m-223 -64 c86 -21 197 -8 250 30 25 19 30 19 43 6 38 -38
-117 -85 -237 -72 -81 9 -116 23 -145 57 -34 40 -21 56 15 19 16 -15 49 -33
74 -40z m124 32 c-15 -2 -42 -2 -60 0 -18 2 -6 4 27 4 33 0 48 -2 33 -4z
m2049 -35 c30 -29 33 -37 33 -90 l0 -58 -67 0 c-59 0 -70 3 -95 27 -25 24 -28
34 -28 90 l0 63 62 0 c56 0 65 -3 95 -32z m-2647 -88 l0 -50 -58 0 c-52 0 -62
3 -87 30 l-29 30 50 0 c37 0 54 5 67 20 9 11 26 20 37 20 17 0 20 -7 20 -50z"/>
<path d="M7320 5179 c-74 -105 -139 -198 -143 -205 -6 -11 4 -14 52 -14 59 0
60 0 92 45 l32 45 132 0 132 0 32 -45 c32 -45 33 -45 92 -45 46 0 58 3 53 13
-4 6 -68 99 -142 205 -177 255 -153 254 -332 1z m292 -1 c142 -202 134 -188
108 -188 -13 0 -32 16 -52 45 l-32 45 -151 0 -151 0 -32 -45 c-20 -29 -39 -45
-52 -45 -26 0 -33 -12 109 188 63 89 121 162 127 162 7 0 64 -73 126 -162z"/>
<path d="M7427 5210 c-31 -43 -57 -81 -57 -84 0 -3 54 -6 121 -6 l120 0 -53
76 c-29 41 -57 79 -63 84 -7 6 -31 -19 -68 -70z m91 -15 c12 -19 22 -37 22
-40 0 -3 -25 -5 -55 -5 -30 0 -55 3 -55 6 0 9 52 74 59 74 3 0 16 -16 29 -35z"/>
<path d="M7920 5165 l0 -205 55 0 55 0 0 74 0 74 133 4 c144 3 182 15 209 66
18 34 15 105 -6 137 -31 47 -68 55 -266 55 l-180 0 0 -205z m404 146 c20 -19
26 -34 26 -67 0 -85 -42 -103 -237 -104 l-123 0 0 -75 c0 -60 -3 -75 -15 -75
-13 0 -15 26 -15 176 l0 176 169 -4 c163 -3 170 -4 195 -27z"/>
<path d="M7990 5240 l0 -60 136 0 c130 0 168 7 186 34 13 19 9 45 -12 66 -18
18 -33 20 -165 20 l-145 0 0 -60z m288 6 c6 -30 -16 -36 -135 -36 l-113 0 0
30 0 31 122 -3 c111 -3 123 -5 126 -22z"/>
<path d="M8540 5165 l0 -205 50 0 50 0 0 75 0 75 113 0 c61 0 128 5 148 10 80
22 118 104 82 177 -31 65 -61 73 -265 73 l-178 0 0 -205z m394 146 c20 -19 26
-34 26 -67 0 -85 -42 -103 -237 -104 l-123 0 0 -75 c0 -60 -3 -75 -15 -75 -13
0 -15 26 -15 176 l0 176 169 -4 c163 -3 170 -4 195 -27z"/>
<path d="M8600 5239 l0 -60 151 3 c135 3 152 5 165 22 19 27 18 52 -6 76 -18
18 -33 20 -165 20 l-145 0 0 -61z m288 7 c6 -30 -16 -36 -135 -36 l-113 0 0
30 0 31 122 -3 c111 -3 123 -5 126 -22z"/>
<path d="M6380 5357 c-46 -15 -105 -76 -113 -117 -23 -115 8 -207 84 -250 41
-23 54 -25 174 -25 123 0 132 1 176 27 25 15 54 39 63 52 16 25 16 26 -26 52
-26 17 -46 23 -53 18 -61 -46 -71 -49 -151 -52 -61 -3 -91 0 -117 13 -62 29
-76 103 -28 157 24 27 36 32 89 36 88 6 147 -5 183 -35 l31 -26 44 24 c24 13
44 26 44 30 0 17 -46 62 -83 81 -35 19 -61 23 -162 25 -70 1 -134 -3 -155 -10z
m235 -27 c57 -9 104 -33 112 -57 8 -22 -28 -21 -69 2 -37 21 -56 25 -136 25
-144 0 -192 -33 -192 -132 0 -55 17 -87 59 -115 29 -20 47 -23 126 -23 77 0
99 4 139 24 75 38 103 14 37 -31 -60 -41 -243 -44 -318 -6 -55 28 -86 91 -79
162 12 130 126 183 321 151z"/>
<path d="M6920 4995 l0 -45 50 0 50 0 0 45 0 45 -50 0 -50 0 0 -45z m70 0 c0
-8 -7 -15 -15 -15 -8 0 -15 7 -15 15 0 8 7 15 15 15 8 0 15 -7 15 -15z"/>
<path d="M5964 4732 c-22 -14 -32 -48 -39 -127 -8 -102 -12 -115 -34 -115 -10
0 -24 -7 -31 -15 -16 -19 3 -45 31 -45 20 0 24 -13 33 -89 5 -50 17 -66 42
-57 14 5 16 16 10 76 l-7 69 48 3 c37 2 49 7 51 22 5 24 -14 36 -60 36 -45 0
-45 -2 -22 129 13 78 14 96 2 107 -7 7 -18 10 -24 6z"/>
<path d="M4007 4661 c-146 -156 -205 -349 -124 -406 27 -19 118 -19 172 0 22
8 43 15 48 15 4 0 7 -22 7 -49 0 -52 16 -76 44 -65 17 6 22 81 17 234 l-3 66
44 9 c33 8 44 15 46 33 4 26 13 24 -143 22 -87 -1 -124 -5 -134 -15 -21 -21 4
-47 43 -44 17 1 44 1 59 0 28 -1 28 -1 25 -63 l-3 -61 -55 -19 c-30 -10 -73
-17 -95 -16 -39 3 -40 4 -43 46 -5 71 66 204 156 289 47 46 51 73 9 73 -16 0
-40 -17 -70 -49z"/>
<path d="M2312 4653 c-13 -24 -32 -159 -32 -226 l0 -52 -74 -22 c-101 -31
-100 -32 -92 25 12 98 12 97 -11 100 -27 4 -38 -17 -47 -83 -7 -52 5 -103 27
-117 20 -13 54 -9 119 13 34 12 78 22 98 23 32 1 35 4 40 36 4 25 14 40 39 57
31 21 91 32 91 17 0 -21 -48 -78 -91 -110 -33 -24 -48 -42 -45 -51 3 -8 6 -17
6 -19 0 -16 47 3 89 36 97 77 130 179 67 208 -25 12 -36 12 -90 -6 -33 -11
-62 -19 -64 -17 -2 2 2 38 8 82 18 116 18 118 -7 121 -13 2 -25 -4 -31 -15z"/>
<path d="M2642 4653 c-15 -27 -32 -163 -32 -247 0 -53 4 -77 15 -86 23 -19 43
-5 47 32 2 24 12 38 37 55 31 21 91 32 91 17 0 -21 -48 -78 -91 -110 -33 -24
-48 -42 -45 -51 3 -8 6 -17 6 -19 0 -16 47 3 89 36 97 77 130 179 67 208 -25
12 -36 12 -90 -6 -33 -11 -62 -19 -64 -17 -2 2 2 38 8 82 18 116 18 118 -7
121 -13 2 -25 -4 -31 -15z"/>
<path d="M2230 4589 c0 -34 -6 -47 -34 -73 -27 -26 -34 -42 -40 -89 -4 -31 -6
-57 -4 -57 3 0 25 7 51 16 l47 16 0 52 c0 29 3 81 6 115 6 52 5 61 -10 61 -12
0 -16 -10 -16 -41z"/>
<path d="M1172 4593 c3 -27 5 -28 75 -31 l71 -3 4 -135 c3 -139 9 -158 48
-151 12 2 14 28 15 147 l0 145 77 0 c79 0 106 11 95 39 -6 14 -33 16 -197 16
l-191 0 3 -27z"/>
<path d="M2126 4607 c-38 -27 2 -95 42 -71 24 16 28 55 6 71 -10 7 -21 13 -24
13 -3 0 -14 -6 -24 -13z"/>
<path d="M4076 4591 c-15 -16 -24 -31 -19 -34 4 -3 39 -3 76 0 l68 6 -27 28
c-35 37 -63 37 -98 0z"/>
<path d="M6020 4576 c-17 -46 -13 -56 23 -56 21 0 41 -8 52 -20 13 -14 22 -17
29 -10 7 7 -5 26 -41 62 l-52 52 -11 -28z"/>
<path d="M2397 4583 c-10 -18 -16 -62 -10 -66 5 -3 25 2 45 10 l37 15 -28 24
c-31 26 -37 28 -44 17z"/>
<path d="M2550 4565 c-19 -14 -41 -25 -49 -25 -10 -1 -5 -7 11 -16 15 -8 32
-23 38 -34 16 -30 12 -94 -9 -143 l-19 -45 21 -6 c12 -3 27 -6 32 -6 6 0 10
57 10 150 0 83 0 150 -1 150 0 0 -15 -11 -34 -25z"/>
<path d="M2727 4583 c-10 -19 -16 -62 -9 -66 4 -3 22 1 41 9 l34 14 -23 25
c-24 26 -36 30 -43 18z"/>
<path d="M5833 4543 c-30 -31 -43 -53 -43 -72 0 -16 -7 -34 -15 -41 -8 -7 -15
-20 -15 -30 0 -15 9 -18 60 -16 33 0 60 4 60 9 0 4 -6 7 -13 7 -22 0 -47 34
-47 63 0 17 10 34 31 50 23 17 30 30 27 49 -3 25 -4 25 -45 -19z"/>
<path d="M4290 4540 c0 -5 4 -10 9 -10 6 0 13 5 16 10 3 6 -1 10 -9 10 -9 0
-16 -4 -16 -10z"/>
<path d="M4374 4530 c-32 -13 -89 -85 -103 -131 -34 -115 46 -159 198 -108 65
22 82 39 62 63 -11 12 -20 12 -68 -5 -59 -20 -133 -26 -133 -10 0 5 16 15 35
21 76 25 122 123 77 163 -20 19 -36 20 -68 7z m8 -92 c-31 -32 -46 -17 -15 16
17 19 28 25 31 17 2 -7 -5 -22 -16 -33z"/>
<path d="M5055 4530 c-31 -13 -72 -61 -94 -111 -17 -38 -29 -50 -62 -63 -50
-20 -65 -11 -74 45 -10 56 -40 75 -87 56 -19 -8 -51 -29 -71 -47 l-37 -32 0
35 c0 42 -22 66 -45 47 -12 -10 -15 -31 -13 -93 4 -114 16 -118 102 -33 38 37
73 65 79 63 6 -2 14 -18 18 -36 9 -41 46 -81 76 -81 13 0 40 7 59 15 34 14 38
13 61 -5 34 -27 101 -26 182 1 65 22 82 39 62 63 -11 12 -20 12 -68 -5 -59
-20 -133 -26 -133 -10 0 5 16 15 35 21 48 16 95 72 95 115 0 54 -34 77 -85 55z
m6 -93 c-29 -30 -39 -12 -10 19 14 15 25 20 27 14 3 -7 -5 -21 -17 -33z"/>
<path d="M1228 4522 c-15 -6 -13 -12 16 -49 l33 -43 7 38 c3 20 6 43 6 50 0
13 -34 15 -62 4z"/>
<path d="M1417 4523 c-3 -5 -2 -41 0 -81 5 -67 8 -74 31 -83 40 -15 57 -7 58
26 1 17 7 43 13 58 17 43 13 63 -14 75 -29 13 -81 16 -88 5z"/>
<path d="M1995 4506 c-19 -14 -19 -15 -1 -65 18 -50 18 -106 2 -143 -6 -14 -4
-18 10 -18 17 0 19 9 20 88 1 60 6 97 18 120 16 32 16 32 -7 32 -13 0 -32 -6
-42 -14z"/>
<path d="M5655 4506 c-76 -33 -155 -128 -155 -186 0 -70 49 -80 118 -23 l45
37 19 -27 c16 -22 28 -27 61 -27 54 0 112 28 112 55 0 17 -6 19 -35 17 -85 -8
-85 -8 -88 18 -5 30 -20 50 -38 50 -7 0 -39 -21 -69 -46 -84 -68 -88 -35 -4
40 34 31 47 37 73 33 40 -6 56 0 56 23 0 36 -50 55 -95 36z"/>
<path d="M5180 4480 c0 -17 -7 -45 -16 -61 -15 -30 -15 -30 8 -27 18 2 24 11
29 43 4 22 9 46 11 54 1 8 -5 17 -14 19 -14 3 -18 -3 -18 -28z"/>
<path d="M1883 4493 c-19 -7 -16 -28 12 -69 14 -20 25 -43 25 -51 0 -20 -60
-53 -97 -53 -28 0 -36 6 -53 40 -11 22 -27 40 -36 40 -9 0 -34 -16 -57 -35
-45 -39 -77 -46 -77 -16 0 33 12 52 37 62 32 12 29 52 -4 57 -52 8 -110 -106
-81 -158 7 -14 26 -29 42 -35 23 -8 36 -5 78 18 l49 28 20 -25 c27 -34 76 -42
138 -21 55 18 101 63 101 98 0 27 -36 97 -58 115 -17 13 -20 13 -39 5z"/>
<path d="M4500 4476 c0 -15 -7 -41 -16 -57 l-15 -30 33 4 c26 3 32 8 30 24 -1
11 2 32 7 46 6 15 7 27 2 27 -5 0 -16 3 -25 6 -12 5 -16 0 -16 -20z"/>
<path d="M5538 4493 c-10 -2 -18 -13 -18 -24 0 -23 15 -17 30 12 6 10 9 18 8
18 -2 -1 -11 -3 -20 -6z"/>
<path d="M2894 4442 c0 -30 -10 -66 -27 -99 -15 -29 -27 -55 -27 -58 0 -3 11
-5 25 -5 23 0 25 4 25 48 0 29 10 67 24 99 25 53 24 63 -3 63 -12 0 -16 -11
-17 -48z"/>
<path d="M2996 4471 c-38 -26 -64 -67 -72 -118 -6 -38 -3 -45 24 -73 17 -16
41 -30 54 -30 82 0 178 69 178 129 0 17 5 31 11 31 6 0 9 10 7 23 -2 17 -12
23 -43 29 -22 3 -58 11 -80 17 -51 13 -45 14 -79 -8z m82 -68 c47 -8 52 -30
14 -65 -40 -35 -97 -39 -107 -8 -9 29 24 93 44 85 9 -4 31 -9 49 -12z"/>
<path d="M3020 4355 c0 -16 9 -19 34 -9 25 9 19 24 -9 24 -16 0 -25 -6 -25
-15z"/>
<path d="M3370 4480 c-8 -5 -11 -12 -7 -16 4 -4 13 -2 19 4 15 15 7 24 -12 12z"/>
<path d="M4670 4480 c-8 -5 -11 -12 -7 -16 4 -4 13 -2 19 4 15 15 7 24 -12 12z"/>
<path d="M6163 4469 c-59 -38 -87 -145 -49 -188 27 -30 79 -37 131 -17 52 20
105 76 105 112 0 14 7 32 15 41 21 21 2 43 -37 43 -16 0 -37 4 -46 9 -41 21
-87 21 -119 0z m103 -69 c34 0 31 -32 -7 -64 -20 -17 -43 -26 -65 -26 -32 0
-34 2 -34 33 0 18 7 42 15 54 13 19 20 21 41 13 14 -6 36 -10 50 -10z"/>
<path d="M6197 4363 c-14 -13 -6 -24 15 -21 27 4 36 28 11 28 -11 0 -23 -3
-26 -7z"/>
<path d="M6395 4480 c3 -5 8 -10 11 -10 2 0 4 5 4 10 0 6 -5 10 -11 10 -5 0
-7 -4 -4 -10z"/>
<path d="M5243 4463 c-17 -34 -16 -139 2 -156 21 -21 37 -14 55 26 19 39 70
70 130 77 33 4 46 10 48 24 8 40 -56 48 -127 16 -53 -24 -49 -25 -53 3 -4 28
-43 36 -55 10z"/>
<path d="M6443 4463 c-17 -34 -16 -139 2 -156 21 -21 37 -14 55 26 19 39 70
70 130 77 33 4 46 10 48 24 8 40 -56 48 -127 16 -53 -24 -49 -25 -53 3 -4 28
-43 36 -55 10z"/>
<path d="M3281 4456 c-8 -9 -11 -43 -9 -92 4 -111 17 -115 102 -30 38 37 73
65 79 63 6 -2 14 -18 18 -36 8 -40 45 -81 74 -81 26 0 123 34 137 48 17 17 1
42 -25 42 -14 0 -41 -7 -62 -15 -46 -20 -61 -10 -70 46 -10 56 -40 75 -87 56
-19 -8 -51 -29 -71 -47 l-37 -32 0 34 c0 49 -26 72 -49 44z"/>
<path d="M4883 4463 c-19 -4 -23 -11 -23 -38 0 -39 12 -50 39 -36 15 8 41 57
41 77 0 5 -26 3 -57 -3z"/>
<path d="M1794 4442 c-20 -7 -20 -7 -2 -49 20 -46 40 -54 73 -29 17 13 17 15
-10 50 -15 20 -30 36 -34 35 -3 -1 -15 -4 -27 -7z"/>
<path d="M3560 4421 c0 -29 12 -40 32 -30 15 8 17 13 7 25 -13 16 -39 19 -39
5z"/>
<path d="M3950 4396 c-5 -16 -10 -38 -10 -49 0 -17 5 -19 43 -14 76 9 97 22
97 61 l0 35 -60 -2 c-56 -1 -60 -3 -70 -31z"/>
<path d="M4205 4419 c-4 -6 -4 -27 1 -47 4 -20 6 -63 5 -94 -3 -51 0 -58 16
-58 40 0 46 15 24 56 -23 42 -26 72 -12 122 8 28 7 32 -9 32 -10 0 -22 -5 -25
-11z"/>
<path d="M6015 4351 c6 -41 28 -82 38 -70 2 2 7 29 11 60 l6 56 -31 0 -31 0 7
-46z"/>
<path d="M3214 4363 c-3 -16 -10 -38 -15 -51 -12 -32 -12 -32 16 -32 24 0 25
3 25 55 0 58 -15 74 -26 28z"/>
<path d="M2385 4370 c-3 -5 -1 -10 4 -10 6 0 11 5 11 10 0 6 -2 10 -4 10 -3 0
-8 -4 -11 -10z"/>
<path d="M2715 4370 c-3 -5 -1 -10 4 -10 6 0 11 5 11 10 0 6 -2 10 -4 10 -3 0
-8 -4 -11 -10z"/>
<path d="M6381 4337 c-15 -51 -13 -61 7 -48 9 5 12 24 10 52 l-3 44 -14 -48z"/>
<path d="M5380 4348 l-35 -22 55 -7 c30 -3 55 -5 56 -5 1 1 4 12 7 26 6 23 3
26 -21 28 -15 1 -43 -8 -62 -20z"/>
<path d="M3412 4317 c-28 -30 -28 -37 3 -37 29 0 41 21 28 45 -8 13 -12 13
-31 -8z"/>
<path d="M4712 4317 c-28 -30 -28 -37 3 -37 29 0 41 21 28 45 -8 13 -12 13
-31 -8z"/>
<path d="M2260 4260 c-12 -8 -9 -10 13 -10 15 0 27 5 27 10 0 13 -20 13 -40 0z"/>
<path d="M4045 4206 l-30 -13 24 -7 c22 -8 40 4 41 27 0 9 2 9 -35 -7z"/>
</g>
</svg>
